<svg width="17" height="17" viewBox="0 0 17 17" fill="none" xmlns="http://www.w3.org/2000/svg">
<path d="M10.9629 9.13086L12.0361 15.1701C12.0481 15.2412 12.0381 15.3143 12.0075 15.3796C11.9768 15.4449 11.927 15.4993 11.8646 15.5355C11.8022 15.5717 11.7303 15.5879 11.6584 15.5822C11.5865 15.5764 11.5181 15.5487 11.4623 15.503L8.92648 13.5997C8.80407 13.5083 8.65536 13.4589 8.50255 13.4589C8.34974 13.4589 8.20103 13.5083 8.07861 13.5997L5.53853 15.5023C5.48279 15.548 5.41447 15.5755 5.34267 15.5813C5.27087 15.5871 5.199 15.5709 5.13666 15.5348C5.07432 15.4987 5.02447 15.4445 4.99376 15.3793C4.96305 15.3141 4.95294 15.2412 4.96478 15.1701L6.03719 9.13086" stroke="#DF00FF" stroke-width="1.41667" stroke-linecap="round" stroke-linejoin="round"/>
<path d="M8.5 9.91699C10.8472 9.91699 12.75 8.0142 12.75 5.66699C12.75 3.31978 10.8472 1.41699 8.5 1.41699C6.15279 1.41699 4.25 3.31978 4.25 5.66699C4.25 8.0142 6.15279 9.91699 8.5 9.91699Z" stroke="#DF00FF" stroke-width="1.41667" stroke-linecap="round" stroke-linejoin="round"/>
</svg>
