<svg width="13" height="13" viewBox="0 0 13 13" fill="none" xmlns="http://www.w3.org/2000/svg">
<g clip-path="url(#clip0_1_6352)">
<path d="M4.60433 7.85417C4.96348 7.85417 5.30791 7.7115 5.56187 7.45754C5.81583 7.20359 5.9585 6.85915 5.9585 6.5C5.9585 5.7525 5.68766 5.41667 5.41683 4.875C4.83616 3.71421 5.2955 2.67908 6.50016 1.625C6.771 2.97917 7.5835 4.27917 8.66683 5.14583C9.75016 6.0125 10.2918 7.04167 10.2918 8.125C10.2918 8.62293 10.1938 9.11598 10.0032 9.57601C9.81266 10.036 9.53336 10.454 9.18128 10.8061C8.82919 11.1582 8.4112 11.4375 7.95117 11.628C7.49114 11.8186 6.99809 11.9167 6.50016 11.9167C6.00223 11.9167 5.50918 11.8186 5.04915 11.628C4.58913 11.4375 4.17114 11.1582 3.81905 10.8061C3.46696 10.454 3.18767 10.036 2.99712 9.57601C2.80657 9.11598 2.7085 8.62293 2.7085 8.125C2.7085 7.50046 2.94304 6.88242 3.25016 6.5C3.25016 6.85915 3.39283 7.20359 3.64679 7.45754C3.90074 7.7115 4.24518 7.85417 4.60433 7.85417Z" stroke="#FF6B35" stroke-width="1.08333" stroke-linecap="round" stroke-linejoin="round"/>
</g>
<defs>
<clipPath id="clip0_1_6352">
<rect width="13" height="13" fill="white"/>
</clipPath>
</defs>
</svg>
