<svg width="9" height="12" viewBox="0 0 9 12" fill="none" xmlns="http://www.w3.org/2000/svg">
<path d="M2.43734 6.77067C2.79648 6.77067 3.14092 6.628 3.39488 6.37404C3.64883 6.12009 3.7915 5.77565 3.7915 5.4165C3.7915 4.669 3.52067 4.33317 3.24984 3.7915C2.66917 2.63071 3.1285 1.59559 4.33317 0.541504C4.604 1.89567 5.4165 3.19567 6.49984 4.06234C7.58317 4.929 8.12484 5.95817 8.12484 7.0415C8.12484 7.53943 8.02676 8.03249 7.83621 8.49251C7.64567 8.95254 7.36637 9.37053 7.01428 9.72262C6.66219 10.0747 6.24421 10.354 5.78418 10.5445C5.32415 10.7351 4.8311 10.8332 4.33317 10.8332C3.83524 10.8332 3.34219 10.7351 2.88216 10.5445C2.42214 10.354 2.00415 10.0747 1.65206 9.72262C1.29997 9.37053 1.02068 8.95254 0.830127 8.49251C0.639578 8.03249 0.541504 7.53943 0.541504 7.0415C0.541504 6.41696 0.776046 5.79892 1.08317 5.4165C1.08317 5.77565 1.22584 6.12009 1.4798 6.37404C1.73375 6.628 2.07819 6.77067 2.43734 6.77067Z" stroke="#FF6B35" stroke-width="1.08333" stroke-linecap="round" stroke-linejoin="round"/>
</svg>
