<svg width="14" height="14" viewBox="0 0 14 14" fill="none" xmlns="http://www.w3.org/2000/svg">
<path d="M4.95817 8.45833C5.34494 8.45833 5.71588 8.30469 5.98937 8.0312C6.26286 7.75771 6.4165 7.38677 6.4165 7C6.4165 6.195 6.12484 5.83333 5.83317 5.25C5.20784 3.99992 5.7025 2.88517 6.99984 1.75C7.2915 3.20833 8.1665 4.60833 9.33317 5.54167C10.4998 6.475 11.0832 7.58333 11.0832 8.75C11.0832 9.28623 10.9776 9.81721 10.7723 10.3126C10.5671 10.808 10.2664 11.2582 9.88719 11.6374C9.50802 12.0165 9.05787 12.3173 8.56246 12.5225C8.06705 12.7277 7.53607 12.8333 6.99984 12.8333C6.46361 12.8333 5.93263 12.7277 5.43721 12.5225C4.9418 12.3173 4.49166 12.0165 4.11248 11.6374C3.73331 11.2582 3.43254 10.808 3.22733 10.3126C3.02212 9.81721 2.9165 9.28623 2.9165 8.75C2.9165 8.07742 3.16909 7.41183 3.49984 7C3.49984 7.38677 3.65348 7.75771 3.92697 8.0312C4.20046 8.30469 4.5714 8.45833 4.95817 8.45833Z" stroke="#FF6B35" stroke-width="1.16667" stroke-linecap="round" stroke-linejoin="round"/>
</svg>
