<svg width="17" height="17" viewBox="0 0 17 17" fill="none" xmlns="http://www.w3.org/2000/svg">
<path d="M8.65559 1.41699H8.34392C7.9682 1.41699 7.60787 1.56625 7.34219 1.83192C7.07651 2.0976 6.92726 2.45794 6.92726 2.83366V2.96116C6.927 3.20959 6.86142 3.45359 6.7371 3.66867C6.61277 3.88375 6.43407 4.06236 6.21892 4.18658L5.91434 4.36366C5.69898 4.488 5.45468 4.55346 5.20601 4.55346C4.95733 4.55346 4.71303 4.488 4.49767 4.36366L4.39142 4.30699C4.06634 4.11947 3.68014 4.0686 3.31759 4.16554C2.95504 4.26249 2.64577 4.49933 2.45767 4.82408L2.30184 5.09324C2.11432 5.41832 2.06345 5.80452 2.16039 6.16707C2.25734 6.52962 2.49418 6.83889 2.81892 7.02699L2.92517 7.09783C3.13929 7.22144 3.31732 7.39893 3.44158 7.61266C3.56585 7.8264 3.63201 8.06893 3.63351 8.31616V8.67741C3.6345 8.92704 3.56951 9.1725 3.44512 9.38894C3.32073 9.60537 3.14136 9.78509 2.92517 9.90991L2.81892 9.97366C2.49418 10.1618 2.25734 10.471 2.16039 10.8336C2.06345 11.1961 2.11432 11.5823 2.30184 11.9074L2.45767 12.1766C2.64577 12.5013 2.95504 12.7382 3.31759 12.8351C3.68014 12.9321 4.06634 12.8812 4.39142 12.6937L4.49767 12.637C4.71303 12.5127 4.95733 12.4472 5.20601 12.4472C5.45468 12.4472 5.69898 12.5127 5.91434 12.637L6.21892 12.8141C6.43407 12.9383 6.61277 13.1169 6.7371 13.332C6.86142 13.5471 6.927 13.7911 6.92726 14.0395V14.167C6.92726 14.5427 7.07651 14.903 7.34219 15.1687C7.60787 15.4344 7.9682 15.5837 8.34392 15.5837H8.65559C9.03131 15.5837 9.39165 15.4344 9.65732 15.1687C9.923 14.903 10.0723 14.5427 10.0723 14.167V14.0395C10.0725 13.7911 10.1381 13.5471 10.2624 13.332C10.3867 13.1169 10.5654 12.9383 10.7806 12.8141L11.0852 12.637C11.3005 12.5127 11.5448 12.4472 11.7935 12.4472C12.0422 12.4472 12.2865 12.5127 12.5018 12.637L12.6081 12.6937C12.9332 12.8812 13.3194 12.9321 13.6819 12.8351C14.0445 12.7382 14.3537 12.5013 14.5418 12.1766L14.6977 11.9003C14.8852 11.5752 14.9361 11.189 14.8391 10.8265C14.7422 10.4639 14.5053 10.1547 14.1806 9.96658L14.0743 9.90991C13.8582 9.78509 13.6788 9.60537 13.5544 9.38894C13.43 9.1725 13.365 8.92704 13.366 8.67741V8.32324C13.365 8.07361 13.43 7.82815 13.5544 7.61172C13.6788 7.39528 13.8582 7.21556 14.0743 7.09074L14.1806 7.02699C14.5053 6.83889 14.7422 6.52962 14.8391 6.16707C14.9361 5.80452 14.8852 5.41832 14.6977 5.09324L14.5418 4.82408C14.3537 4.49933 14.0445 4.26249 13.6819 4.16554C13.3194 4.0686 12.9332 4.11947 12.6081 4.30699L12.5018 4.36366C12.2865 4.488 12.0422 4.55346 11.7935 4.55346C11.5448 4.55346 11.3005 4.488 11.0852 4.36366L10.7806 4.18658C10.5654 4.06236 10.3867 3.88375 10.2624 3.66867C10.1381 3.45359 10.0725 3.20959 10.0723 2.96116V2.83366C10.0723 2.45794 9.923 2.0976 9.65732 1.83192C9.39165 1.56625 9.03131 1.41699 8.65559 1.41699Z" stroke="#555555" stroke-width="1.41667" stroke-linecap="round" stroke-linejoin="round"/>
<path d="M8.5 10.625C9.6736 10.625 10.625 9.6736 10.625 8.5C10.625 7.32639 9.6736 6.375 8.5 6.375C7.32639 6.375 6.375 7.32639 6.375 8.5C6.375 9.6736 7.32639 10.625 8.5 10.625Z" stroke="#555555" stroke-width="1.41667" stroke-linecap="round" stroke-linejoin="round"/>
</svg>
