<svg width="20" height="20" viewBox="0 0 20 20" fill="none" xmlns="http://www.w3.org/2000/svg">
<g clip-path="url(#clip0_1_221)">
<path d="M12 12L8 8" stroke="#555555" stroke-width="1.66667" stroke-linecap="round" stroke-linejoin="round"/>
<path d="M15.5473 17.904C15.2348 18.2166 14.8109 18.3923 14.3689 18.3924C13.9268 18.3925 13.5029 18.2169 13.1903 17.9044C12.8776 17.5919 12.702 17.168 12.7019 16.726C12.7018 16.2839 12.8773 15.86 13.1898 15.5473L11.7173 17.0207C11.4047 17.3333 10.9807 17.5089 10.5386 17.5089C10.0965 17.5089 9.67246 17.3333 9.35984 17.0207C9.04721 16.708 8.87158 16.284 8.87158 15.8419C8.87158 15.3998 9.04721 14.9758 9.35984 14.6632L14.6632 9.35984C14.9758 9.04721 15.3998 8.87158 15.8419 8.87158C16.284 8.87158 16.708 9.04721 17.0207 9.35984C17.3333 9.67246 17.5089 10.0965 17.5089 10.5386C17.5089 10.9807 17.3333 11.4047 17.0207 11.7173L15.5473 13.1898C15.86 12.8773 16.2839 12.7018 16.726 12.7019C17.168 12.702 17.5919 12.8776 17.9044 13.1903C18.2169 13.5029 18.3925 13.9268 18.3924 14.3689C18.3923 14.8109 18.2166 15.2348 17.904 15.5473L15.5473 17.904Z" stroke="#555555" stroke-width="1.66667" stroke-linecap="round" stroke-linejoin="round"/>
<path d="M17.9167 17.9167L16.75 16.75" stroke="#555555" stroke-width="1.66667" stroke-linecap="round" stroke-linejoin="round"/>
<path d="M3.25016 3.25016L2.0835 2.0835" stroke="#555555" stroke-width="1.66667" stroke-linecap="round" stroke-linejoin="round"/>
<path d="M5.33663 10.64C5.02401 10.9526 4.6 11.1282 4.15788 11.1282C3.71576 11.1282 3.29176 10.9526 2.97913 10.64C2.66651 10.3273 2.49088 9.90333 2.49088 9.46121C2.49088 9.0191 2.66651 8.59509 2.97913 8.28246L4.45246 6.80996C4.29767 6.96471 4.11391 7.08744 3.91168 7.17117C3.70945 7.25489 3.49271 7.29796 3.27384 7.29792C2.8318 7.29785 2.40789 7.12217 2.09538 6.80955C1.94064 6.65475 1.8179 6.47099 1.73418 6.26876C1.65046 6.06654 1.60738 5.8498 1.60742 5.63092C1.6075 5.18888 1.78317 4.76498 2.0958 4.45246L4.45246 2.0958C4.76498 1.78317 5.18888 1.6075 5.63092 1.60742C5.8498 1.60738 6.06654 1.65046 6.26876 1.73418C6.47099 1.8179 6.65475 1.94064 6.80955 2.09538C6.96434 2.25012 7.08715 2.43384 7.17094 2.63604C7.25474 2.83824 7.29789 3.05496 7.29792 3.27384C7.29796 3.49271 7.25489 3.70945 7.17117 3.91168C7.08744 4.11391 6.96471 4.29767 6.80996 4.45246L8.28246 2.97913C8.59509 2.66651 9.0191 2.49088 9.46121 2.49088C9.90333 2.49088 10.3273 2.66651 10.64 2.97913C10.9526 3.29176 11.1282 3.71576 11.1282 4.15788C11.1282 4.6 10.9526 5.02401 10.64 5.33663L5.33663 10.64Z" stroke="#555555" stroke-width="1.66667" stroke-linecap="round" stroke-linejoin="round"/>
</g>
<defs>
<clipPath id="clip0_1_221">
<rect width="20" height="20" fill="white"/>
</clipPath>
</defs>
</svg>
